<svg width="795" height="537" viewBox="0 0 795 537" fill="none" xmlns="http://www.w3.org/2000/svg">
<g clip-path="url(#clip0)">
<path d="M204.249 222.912C244.068 222.912 276.348 195.955 276.348 162.703C276.348 129.45 244.068 102.493 204.249 102.493C164.43 102.493 132.15 129.45 132.15 162.703C132.15 195.955 164.43 222.912 204.249 222.912Z" fill="#FF6584"/>
<path d="M370.886 434.117C166.482 434.117 0.703814 480.146 0.0088501 537H741.764C741.069 480.146 575.291 434.117 370.886 434.117Z" fill="#F2F2F2"/>
<g opacity="0.1">
<path opacity="0.1" d="M302.203 512.066C340.135 512.066 370.886 504.933 370.886 496.134C370.886 487.334 340.135 480.201 302.203 480.201C264.271 480.201 233.521 487.334 233.521 496.134C233.521 504.933 264.271 512.066 302.203 512.066Z" fill="black"/>
</g>
<g opacity="0.1">
<path opacity="0.1" d="M450.729 483.388C488.661 483.388 519.411 476.254 519.411 467.455C519.411 458.656 488.661 451.523 450.729 451.523C412.797 451.523 382.046 458.656 382.046 467.455C382.046 476.254 412.797 483.388 450.729 483.388Z" fill="black"/>
</g>
<g opacity="0.1">
<path opacity="0.1" d="M302.203 510.473C336.342 510.473 364.017 504.053 364.017 496.133C364.017 488.214 336.342 481.794 302.203 481.794C268.064 481.794 240.389 488.214 240.389 496.133C240.389 504.053 268.064 510.473 302.203 510.473Z" fill="black"/>
</g>
<g opacity="0.1">
<path opacity="0.1" d="M450.729 481.794C484.868 481.794 512.543 475.374 512.543 467.455C512.543 459.536 484.868 453.116 450.729 453.116C416.59 453.116 388.915 459.536 388.915 467.455C388.915 475.374 416.59 481.794 450.729 481.794Z" fill="black"/>
</g>
<path d="M118.477 212.936C121.796 212.936 124.487 210.689 124.487 207.917C124.487 205.145 121.796 202.899 118.477 202.899C115.158 202.899 112.468 205.145 112.468 207.917C112.468 210.689 115.158 212.936 118.477 212.936Z" fill="#F2F2F2"/>
<path d="M635.313 409.382C638.632 409.382 641.323 407.135 641.323 404.363C641.323 401.591 638.632 399.344 635.313 399.344C631.994 399.344 629.304 401.591 629.304 404.363C629.304 407.135 631.994 409.382 635.313 409.382Z" fill="#F2F2F2"/>
<path d="M351.998 248.067C355.317 248.067 358.008 245.82 358.008 243.048C358.008 240.276 355.317 238.029 351.998 238.029C348.679 238.029 345.988 240.276 345.988 243.048C345.988 245.82 348.679 248.067 351.998 248.067Z" fill="#F2F2F2"/>
<path d="M649.908 215.804C651.805 215.804 653.342 214.52 653.342 212.936C653.342 211.352 651.805 210.068 649.908 210.068C648.012 210.068 646.474 211.352 646.474 212.936C646.474 214.52 648.012 215.804 649.908 215.804Z" fill="#FF6584"/>
<path d="M132.214 359.195C134.11 359.195 135.648 357.911 135.648 356.327C135.648 354.743 134.11 353.459 132.214 353.459C130.317 353.459 128.78 354.743 128.78 356.327C128.78 357.911 130.317 359.195 132.214 359.195Z" fill="#FF6584"/>
<path d="M80.7019 416.782H79.1377V415.476H78.8321V416.782H77.2678V417.038H78.8321V418.344H79.1377V417.038H80.7019V416.782Z" fill="#F2F2F2"/>
<path d="M582.943 310.673H581.378V309.366H581.073V310.673H579.509V310.928H581.073V312.234H581.378V310.928H582.943V310.673Z" fill="#F2F2F2"/>
<path d="M712.581 289.164H711.017V287.858H710.711V289.164H709.147V289.419H710.711V290.726H711.017V289.419H712.581V289.164Z" fill="#F2F2F2"/>
<path d="M433.558 346.521H431.994V345.214H431.688V346.521H430.124V346.776H431.688V348.082H431.994V346.776H433.558V346.521Z" fill="#F2F2F2"/>
<path d="M674.806 353.69H673.241V352.384H672.936V353.69H671.371V353.945H672.936V355.252H673.241V353.945H674.806V353.69Z" fill="#F2F2F2"/>
<path d="M383.763 384.519H382.199V383.213H381.894V384.519H380.329V384.774H381.894V386.081H382.199V384.774H383.763V384.519Z" fill="#F2F2F2"/>
<path d="M493.656 385.953H492.091V384.647H491.786V385.953H490.221V386.208H491.786V387.515H492.091V386.208H493.656V385.953Z" fill="#F2F2F2"/>
<path d="M82.419 264.071H80.8547V262.764H80.5491V264.071H78.9849V264.326H80.5491V265.632H80.8547V264.326H82.419V264.071Z" fill="#F2F2F2"/>
<path d="M583.691 165.394H581.223V207.023H583.691V165.394Z" fill="#E6E6E6"/>
<path d="M525.205 276.061L502.501 319.751L506.943 325.933L505.462 327.994L515.827 332.528V330.055L519.775 329.23L536.556 303.676L525.205 276.061Z" fill="#E6E6E6"/>
<path d="M507.436 327.582C507.436 327.582 490.656 349.427 509.411 352.724C528.166 356.021 512.866 329.643 512.866 329.643L507.436 327.582Z" fill="#E6E6E6"/>
<path d="M531.621 317.69L525.698 333.764L523.23 354.373L518.788 361.792L523.724 395.177L531.621 401.772L535.076 434.745V449.583L544.453 463.185L532.377 477.498C531.808 478.171 531.467 478.96 531.391 479.781C531.315 480.603 531.507 481.426 531.946 482.163C532.386 482.901 533.056 483.525 533.886 483.97C534.717 484.415 535.676 484.664 536.662 484.69C539.328 484.749 542.842 484.12 547.415 482.145C561.728 475.962 561.234 470.192 561.234 470.192C561.234 470.192 570.118 470.192 570.612 464.421C571.105 458.651 565.183 417.434 565.183 417.434L559.753 399.711V351.488H561.728L562.715 392.704L567.157 407.954L567.65 414.549L574.067 480.496C574.067 480.496 602.693 487.091 604.174 481.732C605.654 476.374 593.315 473.077 593.315 473.077L600.719 461.124V438.043L598.251 433.097L593.809 399.711L601.212 393.116L605.161 388.995V356.021L600.225 343.244L598.744 332.528L590.848 316.041C590.848 316.041 554.818 306.149 531.621 317.69Z" fill="white"/>
<path d="M595.783 224.54C595.783 229.498 594.374 234.385 591.672 238.799C588.97 243.213 585.052 247.029 580.239 249.932C575.427 252.836 569.859 254.744 563.991 255.499C558.124 256.255 552.126 255.837 546.49 254.28C540.854 252.723 535.741 250.07 531.571 246.541C527.402 243.012 524.295 238.707 522.506 233.98C520.717 229.252 520.297 224.238 521.281 219.349C522.265 214.46 524.625 209.836 528.166 205.856L528.176 205.848C532.881 200.563 539.461 196.65 546.981 194.667C554.501 192.684 562.578 192.73 570.065 194.8C577.551 196.87 584.066 200.858 588.683 206.197C593.3 211.536 595.784 217.954 595.783 224.54V224.54Z" fill="#009288"/>
<g opacity="0.1">
<path opacity="0.1" d="M590.453 211.553L587.393 226.189C564.398 176.341 527.82 206.961 527.189 207.497C530.969 203.251 535.975 199.875 541.741 197.682C547.506 195.489 553.843 194.551 560.16 194.956C566.477 195.361 572.568 197.095 577.865 199.997C583.162 202.9 587.493 206.875 590.453 211.553V211.553Z" fill="black"/>
</g>
<path d="M591.44 209.904L588.38 224.54C565.385 174.692 528.807 205.312 528.176 205.848C531.956 201.603 536.963 198.226 542.728 196.033C548.494 193.84 554.83 192.902 561.147 193.307C567.464 193.712 573.555 195.447 578.852 198.349C584.149 201.251 588.48 205.226 591.44 209.904V209.904Z" fill="white"/>
<path d="M586.298 203.725L591.44 218.631C591.44 218.631 580.766 245.347 531.269 246.278L529.646 250.094L524.217 251.331L521.75 259.986L528.659 314.805C528.659 314.805 525.698 320.163 530.634 319.751C530.634 319.751 563.208 310.683 591.341 318.926C591.341 318.926 597.264 320.987 595.783 316.453C595.783 316.453 615.525 306.149 614.045 295.433C612.564 284.716 615.525 234.844 615.525 234.844C615.525 234.844 618.487 220.418 609.603 217.121C609.603 217.121 596.555 201.87 586.298 203.725Z" fill="white"/>
<path d="M575.477 307.873C575.477 307.873 544.554 310.467 553.114 324.787C561.674 339.108 576.917 312.706 576.917 312.706L575.477 307.873Z" fill="#E6E6E6"/>
<path d="M591.341 243.912C591.341 243.912 585.912 249.27 587.886 257.926C589.86 266.581 597.264 285.953 597.264 285.953L571.105 306.149L579.002 315.217L614.538 299.967L622.435 295.845C620.472 279.174 615.585 262.834 607.933 247.35L606.641 244.736C606.641 244.736 597.264 241.439 591.341 243.912Z" fill="#E6E6E6"/>
<path d="M588.873 229.28C593.916 229.28 598.004 225.866 598.004 221.655C598.004 217.444 593.916 214.03 588.873 214.03C583.83 214.03 579.742 217.444 579.742 221.655C579.742 225.866 583.83 229.28 588.873 229.28Z" fill="#E6E6E6"/>
<path d="M582.457 170.752C586.137 170.752 589.12 168.261 589.12 165.188C589.12 162.115 586.137 159.624 582.457 159.624C578.777 159.624 575.794 162.115 575.794 165.188C575.794 168.261 578.777 170.752 582.457 170.752Z" fill="#E6E6E6"/>
<path d="M412.954 252.599H411.389V251.293H411.084V252.599H409.519V252.855H411.084V254.161H411.389V252.855H412.954V252.599Z" fill="#F2F2F2"/>
<path d="M553.753 212.45H552.188V211.144H551.883V212.45H550.319V212.705H551.883V214.011H552.188V212.705H553.753V212.45Z" fill="#F2F2F2"/>
<path d="M538.299 224.638H536.735V223.332H536.429V224.638H534.865V224.893H536.429V226.2H536.735V224.893H538.299V224.638Z" fill="#F2F2F2"/>
<path d="M477.343 194.295C479.24 194.295 480.778 193.011 480.778 191.427C480.778 189.843 479.24 188.559 477.343 188.559C475.447 188.559 473.909 189.843 473.909 191.427C473.909 193.011 475.447 194.295 477.343 194.295Z" fill="#F2F2F2"/>
<path d="M308.177 211.641C308.177 411.704 278.052 411.704 240.902 411.704C221.696 411.704 204.369 411.704 192.116 384.068C188.593 376.126 185.481 365.884 182.872 352.701C176.997 323.067 173.628 278.535 173.628 211.641C173.628 185.919 177.274 160.702 182.872 137.149C185.563 125.81 188.706 114.865 192.116 104.427C196.286 91.6469 200.856 79.6303 205.468 68.6343C208.559 61.2408 211.682 54.3019 214.712 47.8948C228.711 18.3207 240.902 -3.05176e-05 240.902 -3.05176e-05C240.902 -3.05176e-05 308.177 101.15 308.177 211.641Z" fill="#F2F2F2"/>
<g opacity="0.1">
<path opacity="0.1" d="M214.712 47.8948V396.694H205.468V68.6344C208.559 61.2409 211.682 54.302 214.712 47.8948Z" fill="black"/>
</g>
<path d="M238.848 168.97C259.269 168.97 275.823 155.146 275.823 138.092C275.823 121.039 259.269 107.215 238.848 107.215C218.427 107.215 201.873 121.039 201.873 138.092C201.873 155.146 218.427 168.97 238.848 168.97Z" fill="#3F3D56"/>
<path d="M319.988 392.834C311.767 375.934 301.211 373.018 294.311 373.272V370.533H186.467V373.272C179.567 373.018 169.011 375.934 160.79 392.834C147.437 420.281 169.006 467.455 169.006 467.455C169.006 467.455 157.479 401.662 195.757 401.229C199.071 404.84 203.139 407.922 207.765 410.327V428.023H269.579V411.938C275.621 409.379 280.899 405.719 285.021 401.229C323.298 401.662 311.771 467.455 311.771 467.455C311.771 467.455 333.34 420.281 319.988 392.834Z" fill="#009288"/>
<path d="M238.848 162.108C254.731 162.108 267.607 151.356 267.607 138.092C267.607 124.829 254.731 114.076 238.848 114.076C222.965 114.076 210.09 124.829 210.09 138.092C210.09 151.356 222.965 162.108 238.848 162.108Z" fill="#009288"/>
<path d="M726.326 144.079H724.609C724.732 159.608 732.2 174.467 745.386 185.417C758.571 196.368 776.404 202.523 795 202.54V201.106C776.859 201.09 759.462 195.087 746.598 184.405C733.735 173.723 726.448 159.228 726.326 144.079V144.079Z" fill="#009288"/>
<path d="M694.56 144.079H692.843C692.974 166.642 703.791 188.245 722.932 204.169C742.073 220.093 767.982 229.044 795 229.067V227.634C768.438 227.609 742.966 218.808 724.148 203.153C705.329 187.498 694.692 166.261 694.56 144.079V144.079Z" fill="#009288"/>
<path d="M661.928 144.079H660.211C660.425 205.996 720.806 256.312 795 256.312V254.878C721.75 254.878 662.142 205.207 661.928 144.079Z" fill="#009288"/>
</g>
<defs>
<clipPath id="clip0">
<rect width="795" height="537" fill="white"/>
</clipPath>
</defs>
</svg>
