<svg width="844" height="610" viewBox="0 0 844 610" fill="none" xmlns="http://www.w3.org/2000/svg">
<g clip-path="url(#clip0)">
<path d="M839.5 206.358V206.366V360.571H391.476L391.476 206.366L391.476 206.357C391.395 162.795 407.039 120.337 436.128 85.4236L436.133 85.4178C455.653 61.9104 480.647 42.5006 509.392 28.5704C538.137 14.6399 569.924 6.53374 602.531 4.83372L602.534 4.83357C606.81 4.60788 611.126 4.49762 615.482 4.503H615.488C617.97 4.503 620.439 4.53538 622.872 4.61557L622.882 4.61589L622.892 4.61617C679.859 6.24559 733.913 27.4458 774.043 63.7795L774.047 63.7834C775.249 64.8687 776.428 65.9654 777.644 67.0964L777.65 67.1021C783.778 72.8995 789.52 79.0164 794.845 85.4203L794.847 85.4233C823.933 120.339 839.576 162.795 839.5 206.358Z" stroke="white" stroke-opacity="0.83" stroke-width="9"/>
<path d="M730.181 200.032C763.438 200.032 790.398 175.685 790.398 145.652C790.398 115.619 763.438 91.2722 730.181 91.2722C696.924 91.2722 669.964 115.619 669.964 145.652C669.964 175.685 696.924 200.032 730.181 200.032Z" fill="#009288"/>
<path opacity="0.2" d="M724.258 114.45C728.074 114.45 731.168 111.657 731.168 108.21C731.168 104.764 728.074 101.97 724.258 101.97C720.442 101.97 717.348 104.764 717.348 108.21C717.348 111.657 720.442 114.45 724.258 114.45Z" fill="black"/>
<path opacity="0.2" d="M736.104 176.854C739.92 176.854 743.014 174.06 743.014 170.613C743.014 167.167 739.92 164.373 736.104 164.373C732.288 164.373 729.194 167.167 729.194 170.613C729.194 174.06 732.288 176.854 736.104 176.854Z" fill="black"/>
<path opacity="0.2" d="M762.757 140.303C765.483 140.303 767.693 138.308 767.693 135.846C767.693 133.384 765.483 131.388 762.757 131.388C760.031 131.388 757.821 133.384 757.821 135.846C757.821 138.308 760.031 140.303 762.757 140.303Z" fill="black"/>
<path opacity="0.2" d="M706.489 164.373C715.212 164.373 722.284 157.987 722.284 150.109C722.284 142.232 715.212 135.846 706.489 135.846C697.766 135.846 690.695 142.232 690.695 150.109C690.695 157.987 697.766 164.373 706.489 164.373Z" fill="black"/>
<path opacity="0.8" d="M540.887 294.983L570.881 263.273L600.875 231.562L617.807 213.661C618.744 212.671 617.298 211.126 616.361 212.116L586.367 243.827L556.373 275.537L539.441 293.438C538.505 294.428 539.95 295.973 540.887 294.983V294.983Z" fill="url(#paint0_linear)"/>
<path opacity="0.8" d="M538.158 155.321L568.152 123.611L598.146 91.9007L615.078 73.9997C616.015 73.0093 614.569 71.4641 613.632 72.4545L583.638 104.165L553.644 135.875L536.712 153.776C535.775 154.766 537.221 156.312 538.158 155.321V155.321Z" fill="url(#paint1_linear)"/>
<path d="M623.024 0.119142V365.069H602.293V0.340347C606.656 0.110623 611.053 -0.00283034 615.485 -9.71724e-06C618.01 -9.71724e-06 620.526 0.0340142 623.024 0.119142Z" fill="white"/>
<path d="M798.303 82.5446H432.667C438.11 75.9957 443.978 69.7442 450.241 63.8232H780.729C786.992 69.7442 792.861 75.9957 798.303 82.5446V82.5446Z" fill="white"/>
<path d="M792.928 244.515C795.548 244.515 797.672 242.597 797.672 240.231C797.672 237.864 795.548 235.946 792.928 235.946C790.307 235.946 788.183 237.864 788.183 240.231C788.183 242.597 790.307 244.515 792.928 244.515Z" fill="#E6E6E6"/>
<path d="M486.353 209.189C488.973 209.189 491.097 207.271 491.097 204.905C491.097 202.538 488.973 200.62 486.353 200.62C483.732 200.62 481.608 202.538 481.608 204.905C481.608 207.271 483.732 209.189 486.353 209.189Z" fill="#E6E6E6"/>
<path d="M702.877 224.071L700.509 226.195L698.156 224.056L696.578 225.472L698.929 227.611L696.561 229.735L698.129 231.161L700.498 229.037L702.849 231.176L704.429 229.759L702.076 227.621L704.444 225.497L702.877 224.071Z" fill="#E6E6E6"/>
<path d="M440.878 266.791L438.51 268.915L436.157 266.776L434.579 268.192L436.93 270.331L434.562 272.455L436.13 273.881L438.499 271.757L440.85 273.896L442.43 272.479L440.077 270.341L442.445 268.217L440.878 266.791Z" fill="#E6E6E6"/>
<path d="M676.495 291.437L674.127 293.562L671.774 291.422L670.196 292.839L672.547 294.977L670.18 297.102L671.747 298.527L674.116 296.403L676.467 298.542L678.047 297.125L675.694 294.987L678.062 292.863L676.495 291.437Z" fill="#E6E6E6"/>
<path d="M516.384 102.483L514.016 104.607L511.664 102.468L510.085 103.885L512.437 106.023L510.069 108.148L511.636 109.573L514.005 107.449L516.357 109.588L517.936 108.171L515.584 106.033L517.952 103.909L516.384 102.483Z" fill="#E6E6E6"/>
<path d="M551.376 579.845H0V581.489H551.376V579.845Z" fill="#E6E6E6"/>
<path d="M87.7187 447.381C75.665 462.768 72.481 550.345 71.7714 578.417C71.7532 579.049 71.735 579.649 71.7259 580.216H41.2139C40.8409 579.616 40.4952 579.025 40.1677 578.417C22.0825 546.179 32.1168 507.526 32.6444 505.571C31.2707 511.716 37.4841 529.527 44.5071 546.779C48.7918 493.732 85.4262 450.059 87.7187 447.381Z" fill="#E6E6E6"/>
<path d="M275.868 368.534L272.414 382.048C272.414 382.048 273.565 413.234 264.357 410.116C255.148 406.997 257.45 379.969 257.45 379.969L265.508 366.455L275.868 368.534Z" fill="#FFB8B8"/>
<path d="M224.643 220.399C237.358 220.399 247.665 211.091 247.665 199.608C247.665 188.126 237.358 178.817 224.643 178.817C211.928 178.817 201.62 188.126 201.62 199.608C201.62 211.091 211.928 220.399 224.643 220.399Z" fill="#FFB8B8"/>
<path d="M206.8 205.326L204.498 235.472L233.276 238.591C233.276 238.591 233.276 213.642 235.579 210.523C237.881 207.405 206.8 205.326 206.8 205.326Z" fill="#FFB8B8"/>
<path d="M270.621 244.585L233.331 230.359C233.331 230.359 215.512 217.965 205.075 227.147L200.391 233.206C200.391 233.206 158.965 247.792 158.976 259.227L175.147 316.389C175.147 316.389 165.97 348.622 179.785 350.69L254.614 356.868C254.614 356.868 264.963 345.425 255.74 330.879L259.16 296.571L270.621 244.585Z" fill="#E6E6E6"/>
<path d="M245.297 245.645L270.621 244.585C270.621 244.585 278.681 246.658 284.455 266.405C290.23 286.151 291.413 318.376 291.413 318.376L277.655 376.602L260.387 374.536L267.239 318.395L255.692 280.981L245.297 245.645Z" fill="#E6E6E6"/>
<path d="M172.783 251.939L160.3 255.461C160.3 255.461 149.777 269.63 149.784 276.906C149.791 284.183 145.24 339.283 145.24 339.283L175.213 383.959L184.401 362.122L165.955 334.069L180.887 299.752L172.783 251.939Z" fill="#E6E6E6"/>
<path d="M258.025 354.5L175.263 347.924C175.263 347.924 167.087 395.042 168.238 413.754C169.389 432.466 170.54 461.573 170.54 461.573L161.331 588.397L197.016 584.239L201.62 479.245L216.585 422.07L233.852 494.839L245.363 588.397L276.443 585.279L266.083 471.969C266.083 471.969 275.292 370.093 258.025 354.5Z" fill="#2F2E41"/>
<path d="M269.537 580.081L279.897 583.2C279.897 583.2 301.768 578.002 296.012 591.516C290.257 605.03 274.141 602.951 274.141 602.951C274.141 602.951 254.572 616.465 246.514 606.07L251.119 584.239L269.537 580.081Z" fill="#2F2E41"/>
<path d="M185.505 580.081L195.865 583.2C195.865 583.2 217.736 578.002 211.98 591.516C206.225 605.03 190.109 602.951 190.109 602.951C190.109 602.951 170.54 616.465 162.482 606.07L167.087 584.239L185.505 580.081Z" fill="#2F2E41"/>
<path d="M206.8 217.8C206.8 217.8 182.627 202.207 195.289 183.495C204.074 170.514 222.276 171.542 232.602 173.389C235.383 173.852 237.999 174.92 240.222 176.499C242.445 178.079 244.209 180.123 245.363 182.456C247.09 186.094 247.09 189.733 240.183 189.733C226.37 189.733 233.276 199.088 233.276 199.088C233.276 199.088 224.067 201.168 226.37 208.444C228.672 215.721 206.8 217.8 206.8 217.8Z" fill="#2F2E41"/>
</g>
<defs>
<linearGradient id="paint0_linear" x1="539.138" y1="253.55" x2="618.11" y2="253.55" gradientUnits="userSpaceOnUse">
<stop stop-color="white"/>
<stop offset="1" stop-color="white" stop-opacity="0.3"/>
</linearGradient>
<linearGradient id="paint1_linear" x1="57851.8" y1="18223.6" x2="64707.4" y2="18223.6" gradientUnits="userSpaceOnUse">
<stop stop-color="white"/>
<stop offset="1" stop-color="white" stop-opacity="0.3"/>
</linearGradient>
<clipPath id="clip0">
<rect width="844" height="610" fill="white"/>
</clipPath>
</defs>
</svg>
