<?xml version="1.0" encoding="UTF-8"?>
<!DOCTYPE svg PUBLIC "-//W3C//DTD SVG 1.1//EN" "http://www.w3.org/Graphics/SVG/1.1/DTD/svg11.dtd">
<!-- Creator: CorelDRAW X7 -->
<svg width="43" height="43" viewBox="0 0 43 43" fill="none" xmlns="http://www.w3.org/2000/svg">
<path fill-rule="evenodd" clip-rule="evenodd" d="M12.06 0.27H25.24H32.04V8.49H25.24V7.07H12.06C9.63 7.07 7.64 9.06 7.64 11.49V26.7H25.24V24.35H19.01V20.72C19.01 18.98 20.44 17.55 22.18 17.55H25.24H32.04V33.5H25.24H0.839996V11.49C0.839996 5.31 5.88 0.27 12.06 0.27Z" fill="white"/>
<path fill-rule="evenodd" clip-rule="evenodd" d="M22.18 9.5H35.36H42.16V16.3V17.72H35.36V16.3H22.18C19.75 16.3 17.76 18.29 17.76 20.72V25.46H10.96V20.72C10.96 14.54 15.99 9.5 22.18 9.5ZM42.12 26.7V33.5V35.93H42.16V42.73H10.96V34.89H17.76V35.93H35.32V33.5H33.11V26.7H42.12Z" fill="white"/>
</svg>

