<?xml version="1.0" encoding="UTF-8"?>
<!DOCTYPE svg PUBLIC "-//W3C//DTD SVG 1.1//EN" "http://www.w3.org/Graphics/SVG/1.1/DTD/svg11.dtd">
<!-- Creator: CorelDRAW X7 -->
<svg xmlns="http://www.w3.org/2000/svg" xml:space="preserve" width="127mm" height="127mm" version="1.1" style="shape-rendering:geometricPrecision; text-rendering:geometricPrecision; image-rendering:optimizeQuality; fill-rule:evenodd; clip-rule:evenodd"
viewBox="0 0 12700 12700"
 xmlns:xlink="http://www.w3.org/1999/xlink">
 <defs>
  <style type="text/css">
   <![CDATA[
    .fil0 {fill:none}
    .fil2 {fill:#009288}
    .fil1 {fill:#00D3BA}
   ]]>
  </style>
 </defs>
 <g id="Layer_x0020_1">
  <metadata id="CorelCorpID_0Corel-Layer"/>
  <rect class="fil0" width="12700" height="12700"/>
  <g id="_701410144">
   <path class="fil1" d="M5406 4227l1318 0 680 0 0 0 0 822 -680 0 0 -142 -1318 0c-243,0 -442,199 -442,442l0 1521 1760 0 0 -235 -623 0 0 -363c0,-174 143,-317 317,-317l306 0 0 0 680 0 0 1595 0 0 -680 0 -2440 0 0 -2201c0,-618 504,-1122 1122,-1122z"/>
   <path class="fil2" d="M6418 5150l1318 0 680 0 0 680 0 142 -680 0 0 -142 -1318 0c-243,0 -442,199 -442,442l0 474 -680 0 0 -474c0,-618 503,-1122 1122,-1122zm1994 1720l0 680 0 243 4 0 0 680 -3120 0 0 -784 680 0 0 104 1756 0 0 -243 -221 0 0 -680 901 0 0 0z"/>
  </g>
 </g>
</svg>
