<?xml version="1.0" encoding="UTF-8"?>
<svg width="2493px" height="380px" viewBox="0 0 2493 380" version="1.1" xmlns="http://www.w3.org/2000/svg" xmlns:xlink="http://www.w3.org/1999/xlink">
    <!-- Generator: Sketch 52.5 (67469) - http://www.bohemiancoding.com/sketch -->
    <title>Group 3</title>
    <desc>Created with Sketch.</desc>
    <defs>
        <linearGradient x1="128.437857%" y1="142.698571%" x2="128.437857%" y2="-13.9764286%" id="linearGradient-1">
            <stop stop-color="#FB9112" offset="0%"></stop>
            <stop stop-color="#FB9C2A" offset="18.23%"></stop>
            <stop stop-color="#FBB869" offset="56.84%"></stop>
            <stop stop-color="#FBDBB5" offset="100%"></stop>
        </linearGradient>
        <path d="M190.978261,380 C296.452826,380 381.956522,294.934286 381.956522,190 C381.956522,85.0659857 296.452826,0 190.978261,0 C85.5036957,0 0,85.0659857 0,190 C0,294.934286 85.5036957,380 190.978261,380 Z" id="path-2"></path>
        <linearGradient x1="-58.0506197%" y1="166.426666%" x2="199.051586%" y2="204.264937%" id="linearGradient-4">
            <stop stop-color="#FB9112" offset="0%"></stop>
            <stop stop-color="#FBDBB5" offset="100%"></stop>
        </linearGradient>
    </defs>
    <g id="Page-1" stroke="none" stroke-width="1" fill="none" fill-rule="evenodd">
        <g id="Group-3">
            <g id="coinsbit-new">
                <polygon id="Path" fill="#000000" points="2319.73382 24.9408657 2176.68018 24.9408657 2176.68018 0 2492.20901 0 2492.20901 24.9408657 2349.14992 24.9408657 2349.14992 380 2320.17034 380"></polygon>
                <polygon id="Path" fill="#000000" points="2069.92061 0 2094.83236 0 2094.83236 380 2069.92061 380"></polygon>
                <path d="M1965.62738,216.038686 C1980.63009,232.314629 1988.11098,253.4904 1988.07278,279.579571 C1988.07278,311.771 1975.76014,336.549714 1951.1485,353.932 C1926.53413,371.314286 1889.98362,380 1841.50788,380 L1664.23913,380 L1664.23913,0 L1830.1283,0 C1873.34941,0 1906.98068,8.41431286 1931.01121,25.2429386 C1955.04446,42.0641 1967.06517,66.0326 1967.06517,97.1551429 C1967.7527,116.835343 1961.4395,136.154271 1949.1596,151.966071 C1936.75965,167.137029 1919.80078,178.329114 1900.5529,184.031829 C1928.97865,189.255743 1950.67378,199.924786 1965.62738,216.038686 Z M1693.19962,23.8724957 L1693.19962,175.359686 L1829.01245,175.359686 C1863.8196,175.359686 1890.61112,168.927371 1909.37883,156.062743 C1928.15472,143.198114 1937.53721,124.291757 1937.53721,99.3507286 C1937.53721,74.6900857 1928.15472,55.9604286 1909.37883,43.1693571 C1890.61112,30.3858857 1863.8196,23.9535443 1829.01245,23.8724957 L1693.19962,23.8724957 Z M1929.39335,336.829286 C1949.28237,324.001571 1959.23234,304.203571 1959.23234,277.443429 C1959.23234,250.683286 1949.28237,230.885286 1929.39335,218.057571 C1909.5016,205.354986 1880.24918,199.018486 1841.63065,199.055129 L1693.19962,199.054971 L1693.19962,356.127857 L1841.50788,356.127857 C1879.92179,356.127857 1909.17421,349.695 1929.27058,336.829286 L1929.39335,336.829286 Z" id="Shape" fill="#000000"></path>
                <path d="M1360.89745,365.644143 C1337.95823,358.117429 1317.14978,345.580143 1300.07905,329.020286 L1313.15834,308.834143 C1328.76945,323.917429 1347.64083,335.510143 1368.44109,342.770857 C1391.68587,351.532571 1416.45029,355.975857 1441.42207,355.872714 C1478.5155,355.872714 1506.51564,349.108714 1525.41158,335.578 C1543.37717,323.656857 1554.00375,303.913143 1553.74729,282.918143 C1554.52485,268.145643 1549.11198,253.685286 1538.72822,242.781729 C1528.25988,232.546157 1515.54073,224.691829 1501.50655,219.791729 C1481.84943,213.091514 1461.78308,207.567129 1441.42207,203.2335 C1418.22912,197.825286 1395.40176,191.066986 1373.06276,182.987371 C1356.08207,176.773557 1340.99478,166.574357 1329.1514,153.3262 C1316.99427,139.983586 1310.90752,122.060614 1310.90752,99.5570143 C1310.76565,81.8517286 1315.98482,64.4876286 1325.9266,49.5916286 C1337.1643,33.4543857 1353.1219,20.8957657 1371.78321,13.49133 C1396.17932,3.85105571 1422.417,-0.714999857 1448.78018,0.0907757568 C1470.25433,0.0835163997 1491.61661,3.16143714 1512.14677,9.22289857 C1531.40011,14.5584514 1549.62216,22.8847943 1566.09267,33.8533857 L1555.51248,55.7329714 C1539.78951,45.3448571 1522.44323,37.4395 1504.12296,32.3290429 C1486.17918,27.0588771 1467.53971,24.3439129 1448.78018,24.2567843 C1412.81625,24.2567843 1385.57184,31.2183571 1367.04422,45.1415571 C1349.20958,57.7363857 1338.84764,77.8736714 1339.25142,99.1430857 C1338.53389,113.879486 1343.93858,128.274429 1354.27323,139.163329 C1364.66517,149.413286 1377.3243,157.267886 1391.30664,162.160657 C1411.23113,168.948 1431.53212,174.6537 1452.1223,179.241657 C1475.33708,184.468286 1498.18899,191.096029 1520.54436,199.073857 C1537.30679,205.331371 1552.26039,215.363643 1564.14742,228.3287 C1576.31274,241.315471 1582.3913,258.933629 1582.3913,280.988286 C1582.55773,298.655571 1577.24035,315.97 1567.13214,330.719429 C1555.46064,346.858571 1539.10745,359.336143 1520.11602,366.580571 C1495.41435,376.118571 1468.9393,380.656857 1442.33603,379.924 C1414.50504,380.024429 1386.9005,375.182143 1360.89745,365.644143 Z" id="Path" fill="#000000"></path>
                <polygon id="Path" fill="#000000" points="1218.23396 0 1218.23396 380 1193.75873 380 915.803511 49.9328143 915.803511 379.940286 886.098207 379.940286 886.098207 0 911.154554 0 1188.53138 330.008286 1188.53138 0"></polygon>
                <path d="M600.217391,380 C705.691957,380 791.195652,294.934286 791.195652,190 C791.195652,85.0659857 705.691957,0 600.217391,0 C494.742826,0 409.23913,85.0659857 409.23913,190 C409.23913,294.934286 494.742826,380 600.217391,380 Z" id="Path" fill="#9C7C4D"></path>
                <path d="M600.217391,380 C705.691957,380 791.195652,294.934286 791.195652,190 C791.195652,85.0659857 705.691957,0 600.217391,0 C494.742826,0 409.23913,85.0659857 409.23913,190 C409.23913,294.934286 494.742826,380 600.217391,380 Z" id="Path" fill="#9C7C4D" opacity="0.392043"></path>
                <path d="M600.217391,380 C705.691957,380 791.195652,294.934286 791.195652,190 C791.195652,85.0659857 705.691957,0 600.217391,0 C494.742826,0 409.23913,85.0659857 409.23913,190 C409.23913,294.934286 494.742826,380 600.217391,380 Z" id="Path" fill="url(#linearGradient-1)"></path>
                <g id="Clipped" transform="translate(409.239130, 0.000000)">
                    <mask id="mask-3" fill="white">
                        <use xlink:href="#path-2"></use>
                    </mask>
                    <g id="Path"></g>
                    <path d="M93.93675,353.286 C2.67642391,302.48 -48.2083696,184.490814 3.0611087,94.0538 C21.8342717,60.9389714 78.7730761,-6.56835429 131.234804,-17.22787 C174.289489,-25.9759586 294.379348,26.6314857 294.379348,26.6314857 L93.93675,353.286 Z" id="Path" fill="url(#linearGradient-4)" mask="url(#mask-3)"></path>
                </g>
                <path d="M463.924391,248.319957 C487.147348,303.419143 541.7835,339.283 602.32088,339.163571 C684.635239,338.905714 751.297565,273.203714 751.559478,192.078057 C751.679522,132.414529 715.289978,78.5652714 659.385185,55.6781429 C603.480391,32.7907429 539.090707,45.3815 496.284293,87.5699143 C453.47788,129.758329 440.704163,193.221043 463.924391,248.319957 Z M479.630989,191.7898 C479.630989,125.015386 534.553609,70.8843857 602.304511,70.8843857 C670.02813,70.9492571 724.912554,125.042257 724.978033,191.7898 C724.978033,258.563943 670.055413,312.693857 602.304511,312.693857 C534.553609,312.693857 479.630989,258.563943 479.630989,191.7898 Z" id="Shape" fill="#FFFFFF" opacity="0.6117"></path>
                <rect id="Rectangle" fill="#FFFFFF" opacity="0.6117" x="589.399837" y="118.961986" width="27.0252246" height="133.177514"></rect>
                <path d="M98.6831054,355.495429 C68.6253098,339.576143 43.6418065,316.070429 26.4005892,287.499857 C8.63636435,257.914414 -0.481147902,224.237186 0.019567278,190.058629 C-0.481147902,155.894729 8.63636435,122.239486 26.4005892,92.6746714 C43.6418065,64.1054571 68.6253098,40.6002857 98.6831054,24.6881929 C130.317836,7.9477 165.9361,-0.553339715 202.024989,0.0279283703 C228.510673,-0.211844301 254.824476,4.23485571 279.652196,13.1500357 C302.727826,21.44036 323.519902,34.7222286 340.440576,51.9715143 L322.622304,69.5402714 C291.30187,40.0264857 251.379228,25.2476614 202.869386,25.2113171 C171.810046,24.8407629 141.17686,32.2012 113.936266,46.5874571 C87.7646054,60.3999143 66.0394641,80.8821857 51.1450696,105.789557 C35.8171543,131.394229 27.9401196,160.508471 28.3512685,190.058629 C27.9474859,219.630771 35.8171543,248.7594 51.1450696,274.387143 C66.031825,299.293429 87.7569663,319.761857 113.936266,333.528714 C141.161854,347.960571 171.802679,355.340714 202.869386,354.963429 C251.020462,354.963429 290.82988,339.975143 322.324924,309.987714 L340.132283,327.557286 C323.189783,344.836429 302.40862,358.190714 279.343902,366.618571 C254.570475,375.665286 228.271677,380.19 201.778354,379.972857 C165.793958,380.540143 130.273092,372.104143 98.6831054,355.495429 Z" id="Path" fill="#000000"></path>
            </g>
        </g>
    </g>
</svg>